<svg xmlns="http://www.w3.org/2000/svg" width="256" height="256" viewBox="0 0 100 100"><path fill="#000000" d="M37.92 88.08L36.25 93.13Q28.47 90.94 24.53 85.90Q20.60 80.87 20.60 72.61L20.60 72.61L20.60 63.86Q20.60 53.19 11.28 53.19L11.28 53.19L11.28 46.81Q20.60 46.81 20.60 36.18L20.60 36.18L20.60 27.04Q20.69 19.00 24.53 14.05Q28.38 9.11 36.25 6.87L36.25 6.87L37.92 11.92Q28.73 14.87 28.73 27.26L28.73 27.26L28.73 36.14Q28.73 46.11 21.39 50.02L21.39 50.02Q28.73 53.98 28.73 64.04L28.73 64.04L28.73 73.09Q28.86 85.18 37.92 88.08L37.92 88.08ZM63.75 93.13L62.04 88.08Q70.96 85.22 71.27 73.53L71.27 73.53L71.27 63.86Q71.27 53.71 79.22 50.02L79.22 50.02Q71.27 46.42 71.27 36.18L71.27 36.18L71.27 27.26Q71.27 14.87 62.08 11.92L62.08 11.92L63.75 6.87Q71.53 9.06 75.44 14.01Q79.36 18.95 79.40 27.08L79.40 27.08L79.40 36.31Q79.40 46.81 88.72 46.81L88.72 46.81L88.72 53.19Q79.40 53.19 79.40 63.86L79.40 63.86L79.40 72.74Q79.40 81.00 75.42 85.97Q71.45 90.94 63.75 93.13L63.75 93.13Z"></path></svg>